<?xml version="1.0" encoding="UTF-8"?>
<svg version="1.1" xmlns="http://www.w3.org/2000/svg" width="300" height="288">
<path d="M0 0 C10.23 0 20.46 0 31 0 C31 2.97 31 5.94 31 9 C24.73 9 18.46 9 12 9 C12 47.94 12 86.88 12 127 C15.3 127 18.6 127 22 127 C22 129.97 22 132.94 22 136 C18.7 136 15.4 136 12 136 C12 145.24 12 154.48 12 164 C15.3 164 18.6 164 22 164 C22 166.64 22 169.28 22 172 C14.74 172 7.48 172 0 172 C0 125.14 0 78.28 0 30 C-5.28 30 -10.56 30 -16 30 C-16 62.01 -16 94.02 -16 127 C-13.03 127 -10.06 127 -7 127 C-7 129.97 -7 132.94 -7 136 C-9.97 136 -12.94 136 -16 136 C-16 145.24 -16 154.48 -16 164 C-13.03 164 -10.06 164 -7 164 C-7 166.64 -7 169.28 -7 172 C-14.26 172 -21.52 172 -29 172 C-29 130.42 -29 88.84 -29 46 C-33.62 46 -38.24 46 -43 46 C-43 72.73 -43 99.46 -43 127 C-40.03 127 -37.06 127 -34 127 C-34 129.97 -34 132.94 -34 136 C-36.97 136 -39.94 136 -43 136 C-43 147.88 -43 159.76 -43 172 C-46.96 172 -50.92 172 -55 172 C-55 127.45 -55 82.9 -55 37 C-46.42 37 -37.84 37 -29 37 C-29 31.72 -29 26.44 -29 21 C-19.43 21 -9.86 21 0 21 C0 14.07 0 7.14 0 0 Z " fill="#1D28C8" transform="translate(189,38)"/>
<path d="M0 0 C21 0 21 0 26 4 C27.328125 6.18359375 27.328125 6.18359375 28.25 8.4375 C28.56453125 9.17871094 28.8790625 9.91992188 29.203125 10.68359375 C30.84328173 15.45130425 31.13300256 19.90218908 31.16113281 24.92993164 C31.16609772 25.60698654 31.17106262 26.28404144 31.17617798 26.98161316 C31.19071218 29.20780472 31.19758467 31.43392517 31.203125 33.66015625 C31.2088809 35.21284486 31.21463858 36.76553345 31.22039795 38.31822205 C31.23088109 41.56705047 31.23674222 44.81585433 31.24023438 48.06469727 C31.24573265 52.22658565 31.26980005 56.38814913 31.29820633 60.54993534 C31.31682529 63.75411433 31.32203776 66.95821464 31.32357025 70.16244316 C31.32659583 71.69704413 31.3346212 73.23164374 31.34775543 74.76619148 C31.36481119 76.91086861 31.36293811 79.05474546 31.35644531 81.19946289 C31.36009094 82.4190419 31.36373657 83.63862091 31.36749268 84.89515686 C30.97360567 88.2229983 30.26257419 89.5885329 28 92 C28.309375 92.598125 28.61875 93.19625 28.9375 93.8125 C31.12164427 98.30926761 31.1303548 102.2772545 31.09765625 107.16796875 C31.0962413 107.96278152 31.09482635 108.7575943 31.09336853 109.57649231 C31.08777378 112.11353325 31.07522228 114.65048575 31.0625 117.1875 C31.05748432 118.90820185 31.05292153 120.62890508 31.04882812 122.34960938 C31.03780607 126.5664403 31.02054506 130.78320516 31 135 C27.04 135 23.08 135 19 135 C18.67 123.45 18.34 111.9 18 100 C16.02 99.67 14.04 99.34 12 99 C12 110.88 12 122.76 12 135 C8.04 135 4.08 135 0 135 C0 90.45 0 45.9 0 0 Z M12 9 C12 35.73 12 62.46 12 90 C13.98 90 15.96 90 18 90 C19.486329 87.02734199 19.14734514 83.99584147 19.14526367 80.73632812 C19.14862228 79.98822372 19.1519809 79.24011932 19.15544128 78.46934509 C19.16496083 75.9899633 19.16689477 73.51064894 19.16796875 71.03125 C19.17118019 69.3125404 19.17454417 67.59383108 19.17805481 65.87512207 C19.18404828 62.27041998 19.18589444 58.66574188 19.18530273 55.06103516 C19.185201 50.43372645 19.19886411 45.80657079 19.21607494 41.1792984 C19.22717191 37.62948901 19.22922267 34.07971693 19.22869301 30.52989197 C19.22987619 28.82339449 19.23431678 27.11689613 19.24202538 25.41041565 C19.25178075 23.0280573 19.24896527 20.64603519 19.24291992 18.26367188 C19.24853943 17.55399765 19.25415894 16.84432343 19.25994873 16.11314392 C19.34272056 12.11043396 19.34272056 12.11043396 17 9 C15.35 9 13.7 9 12 9 Z " fill="#1E28CA" transform="translate(58,75)"/>
<path d="M0 0 C5.0040388 5.78591986 4.27653028 13.43742033 4.22705078 20.66381836 C4.22734283 21.78650116 4.22763489 22.90918396 4.22793579 24.06588745 C4.22654706 27.76145263 4.21100709 31.45681397 4.1953125 35.15234375 C4.19158076 37.7206664 4.18873455 40.28899048 4.18673706 42.85731506 C4.17989177 48.91679229 4.1641431 54.97618592 4.14403808 61.03563172 C4.12163726 67.93770809 4.11067516 74.83978803 4.10064721 81.74189174 C4.07977557 95.93213451 4.04422009 110.12231205 4 124.3125 C-0.29 124.3125 -4.58 124.3125 -9 124.3125 C-9 112.4325 -9 100.5525 -9 88.3125 C-10.98 88.3125 -12.96 88.3125 -15 88.3125 C-15 100.1925 -15 112.0725 -15 124.3125 C-18.96 124.3125 -22.92 124.3125 -27 124.3125 C-27.09265284 108.90050829 -27.16400753 93.48855726 -27.20724869 78.07635307 C-27.22786131 70.91994614 -27.25595675 63.76371559 -27.30175781 56.60742188 C-27.34166576 50.36893091 -27.36744227 44.1305677 -27.37635398 37.89195263 C-27.38156218 34.58951809 -27.39588259 31.28753358 -27.42292023 27.98519516 C-27.45192788 24.29573587 -27.45595692 20.60703532 -27.45410156 16.91748047 C-27.46848267 15.82631424 -27.48286377 14.73514801 -27.49768066 13.61091614 C-27.4645655 7.53109918 -27.09122832 3.9284762 -23 -0.6875 C-16.16202048 -5.47408566 -6.87519689 -3.86729825 0 0 Z M-14 5.3125 C-15.33128112 6.41807617 -15.33128112 6.41807617 -15.12025452 9.20411682 C-15.11803391 10.49873337 -15.11581329 11.79334991 -15.11352539 13.12719727 C-15.11367142 13.83935394 -15.11381744 14.55151062 -15.1139679 15.2852478 C-15.1132687 17.64983112 -15.10547606 20.01433661 -15.09765625 22.37890625 C-15.09579209 24.01415463 -15.09436818 25.64940357 -15.09336853 27.28465271 C-15.08954318 31.59684785 -15.07971275 35.90900952 -15.06866455 40.22119141 C-15.0584508 44.61815946 -15.05387099 49.01513289 -15.04882812 53.41210938 C-15.03809049 62.04558831 -15.02101387 70.67904 -15 79.3125 C-13.02 79.3125 -11.04 79.3125 -9 79.3125 C-9 55.2225 -9 31.1325 -9 6.3125 C-10.65 5.9825 -12.3 5.6525 -14 5.3125 Z " fill="#1A25C8" transform="translate(123,85.6875)"/>
<path d="M0 0 C7.26 0 14.52 0 22 0 C22 2.97 22 5.94 22 9 C18.7 9 15.4 9 12 9 C12.15847412 10.60842773 12.31694824 12.21685547 12.48022461 13.87402344 C13.1748669 22.24951654 13.23034895 30.61675745 13.31640625 39.015625 C13.33702578 40.72483769 13.35802336 42.43404586 13.37937927 44.14324951 C13.43408464 48.60154514 13.48371703 53.05988274 13.53222656 57.51824951 C13.58282249 62.08381809 13.63830794 66.6493271 13.69335938 71.21484375 C13.80030873 80.14317806 13.90188901 89.0715645 14 98 C16.97 98 19.94 98 23 98 C23 100.97 23 103.94 23 107 C20.03 107 17.06 107 14 107 C14 118.88 14 130.76 14 143 C10.04 143 6.08 143 2 143 C0.91848639 137.70140645 0.82872084 132.57046308 0.79467773 127.18798828 C0.78477814 126.21438858 0.77487854 125.24078888 0.76467896 124.23768616 C0.73309221 121.01525278 0.70826753 117.79280564 0.68359375 114.5703125 C0.66297248 112.30141873 0.64197487 110.03252835 0.62062073 107.76364136 C0.57665379 102.99055964 0.53576497 98.21746523 0.49731445 93.44433594 C0.4487946 87.42456584 0.39509083 81.40485799 0.33934593 75.38515091 C0.10727853 50.25639445 -0.07583027 25.12991122 0 0 Z " fill="#1A25CA" transform="translate(216,67)"/>
<path d="M0 0 C8.58 0 17.16 0 26 0 C26 2.31 26 4.62 26 7 C21.05 7 16.1 7 11 7 C11 34.39 11 61.78 11 90 C13.97 90 16.94 90 20 90 C21 91 21 91 21.0625 94.5625 C21.041875 95.696875 21.02125 96.83125 21 98 C18.03 98 15.06 98 12 98 C12 109.88 12 121.76 12 134 C8.04 134 4.08 134 0 134 C0 89.78 0 45.56 0 0 Z " fill="#0512CE" transform="translate(134,76)"/>
<path d="M0 0 C4.7953125 -0.1546875 4.7953125 -0.1546875 9.6875 -0.3125 C11.18543091 -0.38078003 11.18543091 -0.38078003 12.71362305 -0.45043945 C17.26728002 -0.5215545 19.34549194 -0.49523614 23.08203125 2.33203125 C25.30336041 5.42198606 26 7.19568152 26 11 C24.625 13.625 24.625 13.625 23 16 C21.92357291 17.88850355 21.92357291 17.88850355 22 20 C23.26660533 22.04291182 24.59886384 24.04690112 26 26 C26 26.66 26 27.32 26 28 C22.7 28 19.4 28 16 28 C12 21.25 12 21.25 12 19 C11.01 19 10.02 19 9 19 C9 21.97 9 24.94 9 28 C6.03 28 3.06 28 0 28 C0 18.76 0 9.52 0 0 Z M9 7 C9 8.65 9 10.3 9 12 C10.98 12 12.96 12 15 12 C15.66 10.68 16.32 9.36 17 8 C15.81575674 6.58422523 15.81575674 6.58422523 12.4375 6.9375 C10.7359375 6.9684375 10.7359375 6.9684375 9 7 Z " fill="#2832C6" transform="translate(217,222)"/>
<path d="M0 0 C7.26 0 14.52 0 22 0 C22 2.31 22 4.62 22 7 C17.71 7 13.42 7 9 7 C9 7.99 9 8.98 9 10 C13.29 10 17.58 10 22 10 C22 12.31 22 14.62 22 17 C17.71 17 13.42 17 9 17 C9 18.32 9 19.64 9 21 C13.29 21 17.58 21 22 21 C22 23.31 22 25.62 22 28 C14.74 28 7.48 28 0 28 C0 18.76 0 9.52 0 0 Z " fill="#313AC6" transform="translate(190,222)"/>
<path d="M0 0 C7.26 0 14.52 0 22 0 C22 2.31 22 4.62 22 7 C17.71 7 13.42 7 9 7 C9 7.99 9 8.98 9 10 C13.29 10 17.58 10 22 10 C22 12.31 22 14.62 22 17 C17.71 17 13.42 17 9 17 C9 18.32 9 19.64 9 21 C13.29 21 17.58 21 22 21 C22 23.31 22 25.62 22 28 C14.74 28 7.48 28 0 28 C0 18.76 0 9.52 0 0 Z " fill="#303AC6" transform="translate(163,222)"/>
<path d="M0 0 C3.63 0 7.26 0 11 0 C12.6750644 4.10078931 14.33860345 8.20615636 16 12.3125 C16.47695313 13.47974609 16.95390625 14.64699219 17.4453125 15.84960938 C17.89648438 16.96787109 18.34765625 18.08613281 18.8125 19.23828125 C19.23144531 20.26993408 19.65039062 21.30158691 20.08203125 22.36450195 C21 25 21 25 21 28 C18.03 28 15.06 28 12 28 C11.67 26.68 11.34 25.36 11 24 C7.37 24 3.74 24 0 24 C-0.33 25.32 -0.66 26.64 -1 28 C-3.97 28 -6.94 28 -10 28 C-9.43116017 23.9158873 -8.52141737 20.40339371 -6.93359375 16.6015625 C-6.53076172 15.62832031 -6.12792969 14.65507812 -5.71289062 13.65234375 C-5.29201172 12.65332031 -4.87113281 11.65429688 -4.4375 10.625 C-4.01275391 9.60277344 -3.58800781 8.58054688 -3.15039062 7.52734375 C-2.10590155 5.01587565 -1.05370872 2.50761388 0 0 Z M5 9 C3.74335022 11.90600261 3 13.79604584 3 17 C4.65 17 6.3 17 8 17 C7.55296014 12.52116304 7.55296014 12.52116304 5 9 Z " fill="#2832C7" transform="translate(34,222)"/>
<path d="M0 0 C1.37478516 0.01740234 1.37478516 0.01740234 2.77734375 0.03515625 C3.69644531 0.04417969 4.61554688 0.05320313 5.5625 0.0625 C6.27277344 0.07410156 6.98304687 0.08570313 7.71484375 0.09765625 C10.65417006 5.78122084 13.17266038 11.50117426 15.46484375 17.47265625 C15.78066406 18.27832031 16.09648437 19.08398438 16.421875 19.9140625 C18.71484375 25.84004667 18.71484375 25.84004667 18.71484375 28.09765625 C15.74484375 28.09765625 12.77484375 28.09765625 9.71484375 28.09765625 C9.38484375 26.77765625 9.05484375 25.45765625 8.71484375 24.09765625 C4.75484375 24.09765625 0.79484375 24.09765625 -3.28515625 24.09765625 C-3.61515625 25.41765625 -3.94515625 26.73765625 -4.28515625 28.09765625 C-7.25515625 28.09765625 -10.22515625 28.09765625 -13.28515625 28.09765625 C-11.25002383 21.85491878 -9.04956267 15.71291674 -6.66015625 9.59765625 C-6.34820312 8.788125 -6.03625 7.97859375 -5.71484375 7.14453125 C-5.41578125 6.37625 -5.11671875 5.60796875 -4.80859375 4.81640625 C-4.53966309 4.12482422 -4.27073242 3.43324219 -3.99365234 2.72070312 C-2.92331647 0.26874142 -2.76779725 0.11828193 0 0 Z M1.71484375 10.09765625 C1.05484375 12.40765625 0.39484375 14.71765625 -0.28515625 17.09765625 C1.69484375 17.09765625 3.67484375 17.09765625 5.71484375 17.09765625 C5.05484375 14.78765625 4.39484375 12.47765625 3.71484375 10.09765625 C3.05484375 10.09765625 2.39484375 10.09765625 1.71484375 10.09765625 Z " fill="#2832C7" transform="translate(114.28515625,221.90234375)"/>
<path d="M0 0 C3.63 0 7.26 0 11 0 C12.6750644 4.10078931 14.33860345 8.20615636 16 12.3125 C16.47695313 13.47974609 16.95390625 14.64699219 17.4453125 15.84960938 C17.89648438 16.96787109 18.34765625 18.08613281 18.8125 19.23828125 C19.23144531 20.26993408 19.65039062 21.30158691 20.08203125 22.36450195 C21 25 21 25 21 28 C18.03 28 15.06 28 12 28 C11.67 26.68 11.34 25.36 11 24 C7.37 24.33 3.74 24.66 0 25 C-0.33 25.99 -0.66 26.98 -1 28 C-3.97 28 -6.94 28 -10 28 C-9.43116017 23.9158873 -8.52141737 20.40339371 -6.93359375 16.6015625 C-6.53076172 15.62832031 -6.12792969 14.65507812 -5.71289062 13.65234375 C-5.29201172 12.65332031 -4.87113281 11.65429688 -4.4375 10.625 C-4.01275391 9.60277344 -3.58800781 8.58054688 -3.15039062 7.52734375 C-2.10590155 5.01587565 -1.05370872 2.50761388 0 0 Z M5 9 C3.515 12.96 3.515 12.96 2 17 C3.98 17 5.96 17 8 17 C7.45276317 13.62537285 6.9451 11.91765 5 9 Z " fill="#2832C7" transform="translate(255,222)"/>
<path d="M0 0 C7.59 0 15.18 0 23 0 C23 7.875 23 7.875 20.59375 10.74609375 C19.84931641 11.6597168 19.84931641 11.6597168 19.08984375 12.59179688 C18.56519531 13.20087891 18.04054687 13.80996094 17.5 14.4375 C16.97535156 15.07365234 16.45070312 15.70980469 15.91015625 16.36523438 C14.62192896 17.92281827 13.31297637 19.46322084 12 21 C15.63 21 19.26 21 23 21 C23 23.31 23 25.62 23 28 C15.41 28 7.82 28 0 28 C0 20.125 0 20.125 2.1875 17.47265625 C2.63867188 16.90869141 3.08984375 16.34472656 3.5546875 15.76367188 C4.03164062 15.20228516 4.50859375 14.64089844 5 14.0625 C5.47695312 13.47404297 5.95390625 12.88558594 6.4453125 12.27929688 C7.61510473 10.84045243 8.80553415 9.4184282 10 8 C6.7 7.67 3.4 7.34 0 7 C0 4.69 0 2.38 0 0 Z " fill="#2933C7" transform="translate(135,222)"/>
<path d="M0 0 C2.97 0 5.94 0 9 0 C9 6.93 9 13.86 9 21 C12.63 21 16.26 21 20 21 C20 23.31 20 25.62 20 28 C13.4 28 6.8 28 0 28 C0 18.76 0 9.52 0 0 Z " fill="#2A34C7" transform="translate(58,222)"/>
<path d="M0 0 C2.97 0 5.94 0 9 0 C9.08107913 3.39631472 9.14053944 6.79068616 9.1875 10.1875 C9.21263672 11.14720703 9.23777344 12.10691406 9.26367188 13.09570312 C9.35709154 22.09513128 9.35709154 22.09513128 6 26 C2.79375113 28.13749925 1.77541897 28.29574999 -1.9375 28.3125 C-2.79214844 28.32925781 -3.64679688 28.34601563 -4.52734375 28.36328125 C-7.4421356 27.93504169 -8.81326679 26.92290461 -11 25 C-9.68 23.02 -8.36 21.04 -7 19 C-5.02 19.33 -3.04 19.66 -1 20 C-0.67 13.4 -0.34 6.8 0 0 Z " fill="#2D36C6" transform="translate(91,222)"/>
</svg>
